<?xml version="1.0" standalone="no"?>
<!DOCTYPE svg PUBLIC "-//W3C//DTD SVG 20010904//EN"
 "http://www.w3.org/TR/2001/REC-SVG-20010904/DTD/svg10.dtd">
<svg version="1.0" xmlns="http://www.w3.org/2000/svg"
 width="260.000000pt" height="260.000000pt" viewBox="0 0 260.000000 260.000000"
 preserveAspectRatio="xMidYMid meet">
<metadata>
Created by potrace 1.14, written by Peter Selinger 2001-2017
</metadata>
<g transform="translate(0.000000,260.000000) scale(0.100000,-0.100000)"
fill="#000000" stroke="none">
<path d="M190 1976 c-48 -14 -107 -76 -120 -127 -46 -171 12 -396 194 -746 30
-56 130 -190 186 -249 208 -217 452 -290 643 -193 53 27 113 84 143 135 l25
42 32 -30 c137 -128 296 -206 390 -191 99 15 170 110 192 258 4 22 8 49 10 60
2 11 4 36 4 55 1 32 4 36 31 38 103 8 299 122 424 248 144 143 199 259 198
414 0 80 -25 142 -82 204 -59 64 -126 91 -227 90 -73 0 -89 -4 -155 -37 -62
-31 -111 -70 -170 -137 -30 -33 -60 -82 -94 -150 l-35 -72 -30 57 c-117 226
-293 350 -485 341 -91 -4 -179 -44 -246 -111 -45 -45 -57 -65 -95 -154 l-18
-41 -25 20 c-205 163 -437 274 -591 283 -35 2 -80 -1 -99 -7z"/>
</g>
</svg>
