<?xml version="1.0" encoding="UTF-8"?>
<svg width="335px" height="61px" viewBox="0 0 335 61" version="1.1" xmlns="http://www.w3.org/2000/svg" xmlns:xlink="http://www.w3.org/1999/xlink">
    <title>GS_Logo2012_vFWhite</title>
    <g id="Page-1" stroke="none" stroke-width="1" fill="none" fill-rule="evenodd">
        <g id="GS_Logo2012_vFWhite" transform="translate(-0.000000, -0.000000)" fill="#FFFFFE">
            <path d="M106.771,12.451 C101.56,12.451 98.517,15.226 96.148,18.27 L96.148,13.127 L85.861,13.127 L85.861,49.398 L96.148,49.398 L96.148,29.164 C96.148,24.292 98.652,21.789 102.578,21.789 C106.5,21.789 108.801,24.292 108.801,29.164 L108.801,49.398 L119.088,49.398 L119.088,25.917 C119.088,17.595 114.555,12.451 106.771,12.451" id="Fill-1"></path>
            <polygon id="Fill-2" points="69.018 9.135 79.845 9.135 79.845 0 69.018 0"></polygon>
            <polygon id="Fill-3" points="69.288 49.398 79.573 49.398 79.573 13.127 69.288 13.127"></polygon>
            <path d="M54.199,20.435 L54.199,13.127 L43.914,13.127 L43.914,49.398 L54.199,49.398 L54.199,36 C54.199,27.338 58.396,23.211 65.228,23.211 L65.769,23.211 L65.769,12.451 C59.678,12.18 56.297,15.428 54.199,20.435" id="Fill-4"></path>
            <path d="M27.947,29.503 C27.947,34.444 24.091,37.894 19.085,37.894 C14.074,37.894 10.285,34.51 10.285,29.503 L10.285,29.368 C10.285,24.428 14.074,20.977 19.085,20.977 C24.091,20.977 27.947,24.428 27.947,29.368 L27.947,29.503 Z M27.813,17.863 C25.039,14.818 21.723,12.451 16.105,12.451 C7.783,12.451 0,18.542 0,29.368 L0,29.503 C0,40.264 7.649,46.419 16.105,46.419 C21.587,46.419 24.903,44.189 27.947,40.534 L27.947,42.293 C27.947,48.789 24.633,52.173 17.595,52.173 C12.792,52.173 9.07,50.954 5.348,48.856 L1.829,56.569 C6.432,59.005 11.98,60.361 17.865,60.361 C31.332,60.361 38.098,54.88 38.098,41.21 L38.098,13.127 L27.813,13.127 L27.813,17.863 L27.813,17.863 Z" id="Fill-5"></path>
            <path d="M247.854,31.467 C247.854,36.812 244.335,41.343 238.451,41.343 C232.766,41.343 228.907,36.678 228.907,31.331 L228.907,31.194 C228.907,25.849 232.426,21.315 238.314,21.315 C243.996,21.315 247.854,25.984 247.854,31.331 L247.854,31.467 Z M238.451,12.451 C227.149,12.451 218.762,20.908 218.762,31.331 L218.762,31.467 C218.762,41.888 227.079,50.21 238.314,50.21 C249.615,50.21 258.005,41.749 258.005,31.331 L258.005,31.194 C258.005,20.773 249.682,12.451 238.451,12.451 L238.451,12.451 Z" id="Fill-6"></path>
            <path d="M282.969,12.451 C277.759,12.451 274.717,15.226 272.344,18.27 L272.344,13.127 L262.063,13.127 L262.063,49.398 L272.344,49.398 L272.344,29.164 C272.344,24.292 274.846,21.789 278.775,21.789 C282.7,21.789 285.002,24.292 285.002,29.164 L285.002,49.398 L295.287,49.398 L295.287,25.917 C295.287,17.595 290.751,12.451 282.969,12.451" id="Fill-7"></path>
            <path d="M309.153,28.421 C309.97,23.751 312.738,20.707 317.003,20.707 C321.333,20.707 324.041,23.818 324.651,28.421 L309.153,28.421 Z M317.003,12.451 C306.45,12.451 299.069,20.977 299.069,31.331 L299.069,31.467 C299.069,42.563 307.123,50.21 318.02,50.21 C324.58,50.21 329.455,47.639 332.841,43.444 L326.948,38.233 C324.107,40.871 321.605,41.954 318.153,41.954 C313.55,41.954 310.304,39.519 309.292,34.849 L334.53,34.849 C334.597,33.902 334.665,33.293 334.665,32.276 L334.665,32.143 C334.665,21.856 329.116,12.451 317.003,12.451 L317.003,12.451 Z" id="Fill-8"></path>
            <path d="M133.294,31.331 L133.294,31.194 C133.294,25.105 137.354,21.18 142.16,21.18 C146.964,21.18 150.956,25.172 150.956,31.194 L150.956,31.331 C150.956,37.351 146.964,41.343 142.16,41.343 C137.354,41.343 133.294,37.351 133.294,31.331 Z M147.321,47.69 L150.819,44.189 L150.821,44.189 L161.107,33.905 L161.107,0 L150.821,0 L150.821,17.863 C148.384,14.954 145.001,12.451 139.522,12.451 C130.925,12.451 123.009,19.082 123.009,31.194 L123.009,31.331 C123.009,43.444 131.062,50.076 139.522,50.076 C142.743,50.076 145.267,49.153 147.321,47.69 L147.321,47.69 Z" id="Fill-9"></path>
            <path d="M208.802,3.856 L198.518,3.856 L198.518,13.127 L194.19,13.127 L194.19,21.925 L198.518,21.925 L198.518,39.113 C198.518,47.503 202.78,50.005 209.073,50.005 C212.525,50.005 215.032,49.195 217.195,47.909 L217.195,39.653 C215.705,40.465 214.011,40.937 212.12,40.937 C209.818,40.937 208.802,39.789 208.802,37.419 L208.802,21.925 L217.329,21.925 L217.329,13.127 L208.802,13.127 L208.802,3.856" id="Fill-10"></path>
            <path d="M182.554,27.473 C178.629,26.119 175.177,25.172 175.177,23.142 L175.177,23.007 C175.177,21.586 176.466,20.502 178.963,20.502 C181.608,20.502 185.19,21.789 188.776,23.887 L192.7,16.782 C188.776,14.143 183.771,12.586 179.169,12.586 C171.858,12.586 165.906,16.715 165.906,24.09 L165.906,24.226 C165.906,31.264 171.658,33.632 176.734,35.12 C180.726,36.339 184.244,37.084 184.244,39.314 L184.244,39.45 C184.244,41.076 182.889,42.157 179.914,42.157 C178.188,42.157 176.266,41.765 174.276,41.006 L168.1,47.182 C171.885,49.157 175.926,50.076 179.641,50.076 C187.496,50.076 193.517,46.419 193.517,38.368 L193.517,38.233 C193.517,31.603 187.625,29.164 182.554,27.473" id="Fill-11"></path>
        </g>
    </g>
</svg>