<?xml version="1.0" encoding="UTF-8"?>
<svg width="284px" height="141px" viewBox="0 0 284 141" version="1.1" xmlns="http://www.w3.org/2000/svg" xmlns:xlink="http://www.w3.org/1999/xlink">
    <title>WH Logo Rev</title>
    <g id="WH-Logo-Rev" stroke="none" stroke-width="1" fill="none" fill-rule="evenodd">
        <g id="wh_mast_V_rev" fill="#FFFFFE">
            <path d="M33.499,108.216 L28.611,137.981 C28.304,139.789 27.297,140.226 25.882,140.226 L23.987,140.226 C22.757,140.226 21.834,139.347 21.482,138.026 L17.166,121.737 C17.075,121.339 17.034,121.339 16.901,121.339 C16.853,121.339 16.853,121.339 16.853,121.339 C16.853,121.339 16.853,121.339 16.814,121.339 C16.678,121.339 16.633,121.339 16.546,121.737 L12.19,138.026 C11.834,139.347 10.91,140.226 9.68,140.226 L7.83,140.226 C6.418,140.226 5.408,139.789 5.101,137.981 L0.213,108.216 C0.213,108.175 0.213,108.133 0.213,108.085 C0.213,107.645 0.519,107.332 0.96,107.332 L3.514,107.332 C3.865,107.332 4.178,107.597 4.261,108.085 L8.533,136.132 C8.62,136.575 8.577,136.79 8.753,136.79 C8.929,136.79 8.977,136.531 9.06,136.132 L13.377,119.843 C13.689,118.651 14.302,118.079 15.447,118.079 L18.265,118.079 C19.412,118.079 20.031,118.651 20.335,119.843 L24.646,136.132 C24.738,136.531 24.783,136.79 24.959,136.79 C25.135,136.79 25.09,136.575 25.179,136.132 L29.451,108.085 C29.534,107.597 29.842,107.332 30.198,107.332 L32.752,107.332 C33.195,107.332 33.499,107.645 33.499,108.085 C33.499,108.133 33.499,108.175 33.499,108.216" id="Fill-1"></path>
            <path d="M54.295,129.179 L39.543,129.179 L39.543,129.793 C39.543,135.032 41.613,136.972 45.662,136.972 C48.215,136.972 51.477,136.79 53.499,136.483 C53.592,136.483 53.636,136.483 53.723,136.483 C54.074,136.483 54.426,136.659 54.426,137.098 L54.426,138.598 C54.426,139.171 54.25,139.478 53.547,139.608 C51.033,140.097 48.611,140.362 45.662,140.362 C40.598,140.362 35.667,137.981 35.667,129.793 L35.667,125.828 C35.667,119.53 39.147,115.526 45.441,115.526 C51.873,115.526 55.129,119.574 55.129,125.828 L55.129,128.211 C55.129,128.782 54.822,129.179 54.295,129.179 Z M51.209,125.828 C51.209,120.853 49.319,118.914 45.441,118.914 C41.658,118.914 39.543,121.073 39.543,125.828 L39.543,126.224 L51.209,126.224 L51.209,125.828 L51.209,125.828 Z" id="Fill-2"></path>
            <path d="M66.437,140.362 C64.808,140.362 61.639,140.226 59.484,139.706 C58.904,139.564 58.553,139.301 58.553,138.819 L58.553,137.278 C58.553,136.883 58.904,136.62 59.348,136.62 C59.432,136.62 59.484,136.62 59.523,136.62 C61.639,136.883 64.851,137.098 66.437,137.098 C69.295,137.098 70.793,136.356 70.793,133.976 C70.793,132.655 70.005,131.82 67.492,130.323 L63.045,127.675 C60.358,126.054 58.553,124.159 58.553,121.38 C58.553,116.805 61.99,115.526 66.528,115.526 C68.989,115.526 71.326,115.741 73.396,116.098 C73.963,116.19 74.226,116.495 74.226,116.981 L74.226,118.437 C74.226,118.964 73.924,119.179 73.481,119.179 C73.435,119.179 73.396,119.179 73.352,119.179 C71.809,119.051 68.989,118.827 66.528,118.827 C64.06,118.827 62.429,119.14 62.429,121.38 C62.429,122.703 63.444,123.539 65.467,124.731 L69.829,127.323 C73.481,129.485 74.666,131.378 74.666,133.976 C74.666,138.47 71.365,140.362 66.437,140.362" id="Fill-3"></path>
            <path d="M91.365,140.141 C90.486,140.272 89.343,140.362 88.508,140.362 C84.458,140.362 82.518,139.301 82.518,134.461 L82.518,119.093 L78.247,118.606 C77.766,118.563 77.414,118.3 77.414,117.82 L77.414,116.629 C77.414,116.144 77.766,115.833 78.247,115.833 L82.518,115.833 L82.518,111.523 C82.518,111.078 82.824,110.727 83.312,110.644 L85.603,110.292 C85.643,110.292 85.688,110.292 85.734,110.292 C86.086,110.292 86.398,110.597 86.398,111.034 L86.398,115.833 L91.15,115.833 C91.633,115.833 92.029,116.234 92.029,116.718 L92.029,118.211 C92.029,118.695 91.633,119.093 91.15,119.093 L86.398,119.093 L86.398,134.461 C86.398,136.883 87.01,137.234 88.768,137.234 L91.235,137.234 C91.853,137.234 92.16,137.41 92.16,137.851 L92.16,139.394 C92.16,139.789 91.945,140.052 91.365,140.141" id="Fill-4"></path>
            <path d="M112.819,129.179 L98.071,129.179 L98.071,129.793 C98.071,135.032 100.142,136.972 104.191,136.972 C106.743,136.972 110.005,136.79 112.029,136.483 C112.116,136.483 112.16,136.483 112.251,136.483 C112.602,136.483 112.954,136.659 112.954,137.098 L112.954,138.598 C112.954,139.171 112.778,139.478 112.068,139.608 C109.562,140.097 107.141,140.362 104.191,140.362 C99.126,140.362 94.197,137.981 94.197,129.793 L94.197,125.828 C94.197,119.53 97.674,115.526 103.97,115.526 C110.397,115.526 113.657,119.574 113.657,125.828 L113.657,128.211 C113.657,128.782 113.352,129.179 112.819,129.179 Z M109.738,125.828 C109.738,120.853 107.844,118.914 103.97,118.914 C100.187,118.914 98.071,121.073 98.071,125.828 L98.071,126.224 L109.738,126.224 L109.738,125.828 L109.738,125.828 Z" id="Fill-5"></path>
            <path d="M127.732,118.871 C125.708,118.871 123.859,119.402 121.658,120.722 L121.658,139.171 C121.658,139.608 121.257,140.052 120.773,140.052 L118.618,140.052 C118.176,140.052 117.78,139.656 117.78,139.171 L117.78,116.718 C117.78,116.234 118.132,115.833 118.618,115.833 L120.689,115.833 C121.17,115.833 121.522,116.234 121.522,116.718 L121.522,117.636 C123.728,116.098 125.749,115.526 127.732,115.526 C128.347,115.526 128.659,115.789 128.659,116.319 L128.659,118.124 C128.659,118.606 128.347,118.871 127.732,118.871" id="Fill-6"></path>
            <path d="M149.714,140.052 L147.604,140.052 C147.116,140.052 146.726,139.656 146.726,139.171 L146.726,124.687 C146.726,120.238 145.222,118.871 141.873,118.871 C140.026,118.871 137.956,119.574 135.93,120.59 L135.93,139.171 C135.93,139.608 135.534,140.052 135.051,140.052 L132.897,140.052 C132.453,140.052 132.058,139.656 132.058,139.171 L132.058,116.718 C132.058,116.234 132.409,115.833 132.897,115.833 L135.096,115.833 C135.578,115.833 135.93,116.234 135.93,116.718 L135.93,117.552 C138.352,116.19 140.339,115.526 142.928,115.526 C148.215,115.526 150.593,118.827 150.593,124.687 L150.593,139.171 C150.593,139.656 150.194,140.052 149.714,140.052" id="Fill-7"></path>
            <path d="M188.345,140.052 L186.099,140.052 C185.617,140.052 185.22,139.656 185.22,139.171 L185.22,124.55 L170.163,124.55 L170.163,139.171 C170.163,139.656 169.765,140.052 169.276,140.052 L167.038,140.052 C166.553,140.052 166.151,139.656 166.151,139.171 L166.151,108.216 C166.151,107.733 166.553,107.332 167.038,107.332 L169.276,107.332 C169.765,107.332 170.163,107.733 170.163,108.216 L170.163,120.984 L185.22,120.984 L185.22,108.216 C185.22,107.733 185.617,107.332 186.099,107.332 L188.345,107.332 C188.833,107.332 189.224,107.733 189.224,108.216 L189.224,139.171 C189.224,139.656 188.833,140.052 188.345,140.052" id="Fill-8"></path>
            <path d="M212.597,129.179 L197.844,129.179 L197.844,129.793 C197.844,135.032 199.914,136.972 203.964,136.972 C206.516,136.972 209.777,136.79 211.802,136.483 C211.894,136.483 211.938,136.483 212.021,136.483 C212.375,136.483 212.727,136.659 212.727,137.098 L212.727,138.598 C212.727,139.171 212.551,139.478 211.848,139.608 C209.335,140.097 206.919,140.362 203.964,140.362 C198.898,140.362 193.97,137.981 193.97,129.793 L193.97,125.828 C193.97,119.53 197.451,115.526 203.742,115.526 C210.175,115.526 213.43,119.574 213.43,125.828 L213.43,128.211 C213.43,128.782 213.124,129.179 212.597,129.179 Z M209.511,125.828 C209.511,120.853 207.622,118.914 203.742,118.914 C199.96,118.914 197.844,121.073 197.844,125.828 L197.844,126.224 L209.511,126.224 L209.511,125.828 L209.511,125.828 Z" id="Fill-9"></path>
            <path d="M233.501,140.052 L231.475,140.052 C230.995,140.052 230.596,139.656 230.596,139.171 L230.596,138.202 C228.481,139.438 226.281,140.362 223.813,140.362 C220.07,140.362 216.64,138.729 216.64,133.227 L216.64,132.694 C216.64,127.942 219.413,125.565 227.251,125.565 L230.507,125.565 L230.507,123.808 C230.507,120.105 229.232,118.827 225.795,118.827 C222.935,118.827 220.819,119.003 219.061,119.179 C218.975,119.179 218.925,119.179 218.842,119.179 C218.442,119.179 218.046,119.051 218.046,118.476 L218.046,116.933 C218.046,116.444 218.352,116.19 218.975,116.098 C220.78,115.789 222.803,115.526 225.795,115.526 C231.913,115.526 234.385,118.606 234.385,123.808 L234.385,139.171 C234.385,139.656 233.989,140.052 233.501,140.052 Z M230.507,128.339 L227.251,128.339 C221.919,128.339 220.513,129.524 220.513,132.655 L220.513,133.183 C220.513,136.356 222.011,137.186 224.562,137.186 C226.587,137.186 228.391,136.575 230.507,135.429 L230.507,128.339 L230.507,128.339 Z" id="Fill-10"></path>
            <path d="M242.698,140.052 L240.404,140.052 C239.96,140.052 239.608,139.656 239.608,139.171 L239.608,107.781 C239.608,107.332 239.921,106.941 240.404,106.941 L242.698,106.941 C243.135,106.941 243.486,107.293 243.486,107.781 L243.486,139.171 C243.486,139.608 243.178,140.052 242.698,140.052" id="Fill-11"></path>
            <path d="M260.999,140.141 C260.107,140.272 258.968,140.362 258.13,140.362 C254.085,140.362 252.139,139.301 252.139,134.461 L252.139,119.093 L247.874,118.606 C247.388,118.563 247.036,118.3 247.036,117.82 L247.036,116.629 C247.036,116.144 247.388,115.833 247.874,115.833 L252.139,115.833 L252.139,111.523 C252.139,111.078 252.451,110.727 252.935,110.644 L255.225,110.292 C255.264,110.292 255.315,110.292 255.356,110.292 C255.708,110.292 256.019,110.597 256.019,111.034 L256.019,115.833 L260.771,115.833 C261.255,115.833 261.654,116.234 261.654,116.718 L261.654,118.211 C261.654,118.695 261.255,119.093 260.771,119.093 L256.019,119.093 L256.019,134.461 C256.019,136.883 256.631,137.234 258.401,137.234 L260.864,137.234 C261.475,137.234 261.787,137.41 261.787,137.851 L261.787,139.394 C261.787,139.789 261.565,140.052 260.999,140.141" id="Fill-12"></path>
            <path d="M282.798,140.052 L280.687,140.052 C280.2,140.052 279.808,139.656 279.808,139.171 L279.808,124.687 C279.808,120.281 277.954,118.914 275.092,118.914 C273.733,118.914 270.951,119.266 269.014,120.148 L269.014,139.171 C269.014,139.608 268.618,140.052 268.135,140.052 L265.979,140.052 C265.537,140.052 265.142,139.656 265.142,139.171 L265.142,107.82 C265.142,107.332 265.493,106.941 265.979,106.941 L268.178,106.941 C268.662,106.941 269.014,107.332 269.014,107.82 L269.014,116.894 C271.123,115.968 273.852,115.526 275.747,115.526 C280.415,115.526 283.677,118.211 283.677,124.687 L283.677,139.171 C283.677,139.656 283.284,140.052 282.798,140.052" id="Fill-13"></path>
            <path d="M181.144,60.048 C191.606,57.978 205.175,47.89 212.134,38.418 C221.665,25.459 220.571,11.455 211.221,4.579 C201.865,-2.296 187.844,0.448 178.319,13.407 C176.411,16.005 174.614,19.11 173.026,22.46 C173.124,22.665 173.229,22.86 173.319,23.075 C178.078,33.427 181.171,47.558 181.144,60.048" id="Fill-14"></path>
            <path d="M118.728,47.997 C113.937,37.587 113.013,27.021 115.454,18.281 C99.25,5.536 78.592,-3.634 69.68,3.759 C57.766,13.661 71.248,49.286 86.438,67.577 C101.639,85.882 121.092,90.18 133.006,80.287 C135.037,78.603 136.711,76.61 138.034,74.384 C129.733,66.327 122.512,56.231 118.728,47.997" id="Fill-15"></path>
            <path d="M169.621,60.956 C160.839,54.501 163.35,36.65 169.815,22.432 C160.654,4.247 144.597,-3.048 131.418,3.007 C125.422,5.762 121.014,10.801 118.723,17.245 C123.813,21.376 128.386,25.79 131.932,30.059 C139.621,39.325 143.935,49.364 144.404,59.11 C144.667,64.525 143.698,69.535 141.608,73.861 C151.132,82.592 161.555,88.001 168.796,84.677 C174.855,81.894 177.675,73.49 178.144,63.3 C177.929,63.31 177.714,63.319 177.499,63.319 C174.406,63.319 171.757,62.528 169.621,60.956" id="Fill-16"></path>
            <path d="M171.464,26.015 C166.296,38.729 164.502,53.612 171.335,58.632 C173.195,60 175.559,60.526 178.215,60.409 C178.267,48.993 175.637,35.888 171.464,26.015" id="Fill-17"></path>
            <path d="M129.714,31.903 C126.443,27.968 122.361,23.974 117.844,20.215 C116.001,27.881 116.912,37.147 121.346,46.787 C125.174,55.116 131.893,64.355 139.387,71.742 C144.061,60.985 141.326,45.889 129.714,31.903" id="Fill-18"></path>
        </g>
    </g>
</svg>