<?xml version="1.0" encoding="UTF-8"?>
<svg width="201px" height="70px" viewBox="0 0 201 70" version="1.1" xmlns="http://www.w3.org/2000/svg" xmlns:xlink="http://www.w3.org/1999/xlink">
    <title>Group 38</title>
    <defs>
        <polygon id="path-1" points="0 70 201 70 201 0 0 0"></polygon>
    </defs>
    <g id="Symbols" stroke="none" stroke-width="1" fill="none" fill-rule="evenodd">
        <g id="Footer" transform="translate(-636.000000, -58.000000)">
            <g id="Group-38" transform="translate(636.000000, 58.000000)">
                <path d="M40.5380417,11 L48,11 L39.6674157,45.0426151 C39.1897271,47.015487 37.4677368,48 34.505297,48 C31.4696629,48 29.7130016,47.015487 29.2391653,45.0426151 L23.9229535,25.340817 L18.6067416,45.0426151 C18.129053,47.015487 16.376244,48 13.34061,48 C10.3743178,48 8.67158909,47.015487 8.22857143,45.0426151 L0,11 L7.71621188,11 L13.8028892,39.4278142 L20.5983949,15.0303503 L27.3977528,15.0303503 L34.3011236,39.5816443 L40.5380417,11 Z" id="Fill-1" fill="#FFFFFF"></path>
                <path d="M59.248,27.2976891 C57.58144,27.2976891 56.10688,27.8479977 54.81664,28.9447395 C53.5264,30.0414813 52.70848,31.5838955 52.37056,33.5719822 L60.52288,33.5719822 C61.54432,33.5719822 62.33152,33.316205 62.89216,32.8007751 C63.4528,32.2853452 63.73312,31.5993972 63.73312,30.742931 C63.73312,29.785704 63.3184,28.967992 62.48512,28.301421 C61.65184,27.6309746 60.57664,27.2976891 59.248,27.2976891 M59.248,43.3961533 C61.93216,43.3961533 64.49728,42.4854313 66.94336,40.6678628 L69.74656,45.1943448 C66.55168,47.7327401 62.89984,49 58.79104,49 C54.88192,49 51.77536,47.7753696 49.46368,45.3222334 C47.15584,42.8729726 46,39.7261375 46,35.8856036 C46,32.0140663 47.18656,28.7315918 49.56736,26.03818 C51.94432,23.3447682 55.18912,22 59.30176,22 C62.28928,22 64.81984,22.798335 66.89344,24.3911296 C68.9632,25.9877996 70,28.1735324 70,30.9483278 C70,33.0759294 69.3472,34.8314913 68.03776,36.2227645 C66.72832,37.6101622 64.72,38.3038611 62.00128,38.3038611 L52.52416,38.3038611 C53.2384,41.6987225 55.48096,43.3961533 59.248,43.3961533" id="Fill-3" fill="#FFFFFF"></path>
                <path d="M82.8686977,49 C78.3613041,49 74.7357919,47.6954271 72,45.0823986 L74.8024229,40.6522865 C77.3344023,42.6790336 79.9173348,43.6924072 82.5551399,43.6924072 C83.6996259,43.6924072 84.6598967,43.4710958 85.4398717,43.0207075 C86.2198468,42.5780846 86.611794,41.960742 86.611794,41.1686799 C86.611794,40.8930112 86.5569214,40.6367558 86.4550151,40.3960311 C86.3531089,40.1553063 86.188491,39.9339948 85.9611616,39.7243313 C85.7338322,39.5185505 85.5221807,39.3477135 85.3105291,39.2118205 C85.1027971,39.0720449 84.7892393,38.9167386 84.3776946,38.7459016 C83.9583111,38.5750647 83.6212364,38.446937 83.3625512,38.3615186 C83.103866,38.2761001 82.7001603,38.1479724 82.1631926,37.9732528 C81.6301443,37.8024159 81.238197,37.6820535 80.9912703,37.6121657 C78.5651167,36.7890423 76.7033672,35.8261432 75.4060217,34.7273512 C74.1047568,33.6285591 73.4541244,32.0832614 73.4541244,30.0914582 C73.4541244,27.5483175 74.4339925,25.5642796 76.3937288,24.1393443 C78.3495457,22.714409 80.8736861,22 83.9583111,22 C87.7014074,22 90.9624087,22.997843 93.7373953,24.9896462 L91.0329592,29.3692839 C88.6420809,27.9249353 86.3844646,27.2066437 84.2679494,27.2066437 C83.1273829,27.2066437 82.2063068,27.4201898 81.5125601,27.8511648 C80.8227329,28.2782571 80.4738999,28.8373598 80.4738999,29.5245902 C80.4738999,30.0720449 80.7325851,30.5612597 81.2538749,30.9922347 C81.7751648,31.4232097 82.2533405,31.714409 82.6844825,31.8658326 C83.1156244,32.0211389 83.9073579,32.2890423 85.0518439,32.6656601 C86.2276857,33.0461605 87.1056476,33.3373598 87.6818101,33.5431406 C88.2501336,33.7489215 89.0222697,34.1022433 89.9903795,34.5992235 C90.9624087,35.0962036 91.6835917,35.5970664 92.1500089,36.0940466 C92.6164262,36.5910267 93.0436487,37.2433132 93.4238375,38.050906 C93.8079458,38.8584987 94,39.7592752 94,40.7571182 C94,43.3313201 92.922145,45.350302 90.774274,46.8101812 C88.6224835,48.2700604 85.9885979,49 82.8686977,49" id="Fill-5" fill="#FFFFFF"></path>
                <path d="M113.761362,41.4444444 L116,46.3955646 C113.674958,48.1305725 110.94539,49 107.819151,49 C105.007107,49 102.815598,48.1805838 101.248551,46.5494456 C99.6893585,44.9144603 98.9077988,42.6177868 98.9077988,39.6555782 L98.9077988,27.710568 L95,27.710568 L95,22.9133288 L98.9077988,22.9133288 L98.9077988,15 L105.992893,15 L105.992893,22.9133288 L114.440808,22.9133288 L114.440808,27.710568 L105.992893,27.710568 L105.992893,39.0439013 C105.992893,40.4057479 106.35029,41.375198 107.065083,41.9522516 C107.775949,42.5331523 108.61642,42.8216791 109.590425,42.8216791 C110.94539,42.8216791 112.335702,42.3638832 113.761362,41.4444444" id="Fill-7" fill="#FFFFFF"></path>
                <path d="M130.24972,27.2976891 C128.583427,27.2976891 127.105263,27.8479977 125.81523,28.9447395 C124.525196,30.0414813 123.707407,31.5838955 123.369541,33.5719822 L131.520557,33.5719822 C132.541833,33.5719822 133.332747,33.316205 133.889458,32.8007751 C134.453847,32.2853452 134.730283,31.5993972 134.730283,30.742931 C134.730283,29.785704 134.315629,28.967992 133.482483,28.301421 C132.649336,27.6309746 131.574308,27.2976891 130.24972,27.2976891 M130.24972,43.3961533 C132.929611,43.3961533 135.494321,42.4854313 137.94001,40.6678628 L140.742761,45.1943448 C137.548392,47.7327401 133.897136,49 129.788994,49 C125.880499,49 122.774436,47.7753696 120.463126,45.3222334 C118.155655,42.8729726 117,39.7261375 117,35.8856036 C117,32.0140663 118.18637,28.7315918 120.570629,26.03818 C122.947208,23.3447682 126.18765,22 130.299632,22 C133.286674,22 135.816829,22.798335 137.890098,24.3911296 C139.959526,25.9877996 141,28.1735324 141,30.9483278 C141,33.0759294 140.343465,34.8314913 139.038074,36.2227645 C137.728843,37.6101622 135.717005,38.3038611 132.99872,38.3038611 L123.523116,38.3038611 C124.237242,41.6987225 126.479443,43.3961533 130.24972,43.3961533" id="Fill-9" fill="#FFFFFF"></path>
                <path d="M158.976705,22 C160.563694,22 161.903463,22.3055229 163,22.9127497 L161.516684,28.3854289 C160.280588,28.0149824 159.207975,27.8278496 158.286884,27.8278496 C155.746905,27.8278496 153.418258,28.7749706 151.304932,30.6653937 L151.304932,48 L144,48 L144,22.6568743 L151.041763,22.6568743 L151.041763,25.5975323 C153.438195,23.1991774 156.081847,22 158.976705,22" id="Fill-11" fill="#FFFFFF"></path>
                <mask id="mask-2" fill="white">
                    <use xlink:href="#path-1"></use>
                </mask>
                <g id="Clip-14"></g>
                <polygon id="Fill-13" fill="#FFFFFF" mask="url(#mask-2)" points="165 48 172 48 172 11 165 11"></polygon>
                <path d="M193.916963,22 L201,22 L190.55396,48.381916 C190.047206,49.649085 189.517418,50.7806243 188.976113,51.7765339 C188.430968,52.7685684 187.755296,53.7722282 186.941419,54.7836383 C186.123703,55.7950484 185.137068,56.5817008 183.985355,57.1474704 C182.825963,57.71324 181.55524,58 180.161666,58 C177.750746,58 175.696858,57.2249731 174,55.6826695 L176.441632,50.8503767 C177.462818,51.6719053 178.583819,52.0826695 179.804635,52.0826695 C181.605147,52.0826695 183.033272,50.8658773 184.08517,48.4322928 L184.745486,46.7853606 L174.9636,22 L182.100384,22 L188.108489,39.279225 L193.916963,22 Z" id="Fill-15" fill="#FFFFFF" mask="url(#mask-2)"></path>
                <g id="Group-35" mask="url(#mask-2)" fill="#7C66EF">
                    <g transform="translate(8.000000, 54.000000)">
                        <path d="M0.1701125,6.244 L0.9838625,5.24 C1.5418625,5.72 2.1347375,6.02 2.8477375,6.02 C3.4096125,6.02 3.7506125,5.792 3.7506125,5.412 L3.7506125,5.396 C3.7506125,5.036 3.5336125,4.852 2.4912375,4.576 C1.2318625,4.244 0.4181125,3.884 0.4181125,2.604 L0.4181125,2.584 C0.4181125,1.412 1.3326125,0.64 2.6074875,0.64 C3.5181125,0.64 4.2931125,0.936 4.9286125,1.46 L4.2156125,2.528 C3.6576125,2.132 3.1189875,1.892 2.5881125,1.892 C2.0611125,1.892 1.7859875,2.144 1.7859875,2.456 L1.7859875,2.476 C1.7859875,2.9 2.0533625,3.036 3.1344875,3.324 C4.4016125,3.66 5.1146125,4.132 5.1146125,5.256 L5.1146125,5.276 C5.1146125,6.556 4.1691125,7.276 2.8244875,7.276 C1.8751125,7.276 0.9179875,6.936 0.1701125,6.244" id="Fill-16"></path>
                        <polygon id="Fill-17" points="7.5341625 2.0412 5.6315375 2.0412 5.6315375 0.7332 10.8124125 0.7332 10.8124125 2.0412 8.9059125 2.0412 8.9059125 7.1852 7.5341625 7.1852"></polygon>
                        <path d="M14.5541125,4.4824 L13.7209875,2.3904 L12.8917375,4.4824 L14.5541125,4.4824 Z M13.1048625,0.6864 L14.3719875,0.6864 L17.0534875,7.1824 L15.6119875,7.1824 L15.0423625,5.7344 L12.3996125,5.7344 L11.8299875,7.1824 L10.4311125,7.1824 L13.1048625,0.6864 Z" id="Fill-18"></path>
                        <polygon id="Fill-19" points="17.914125 0.7324 22.6765 0.7324 22.6765 2.0244 19.28975 2.0244 19.28975 3.3964 22.2735 3.3964 22.2735 4.6844 19.28975 4.6844 19.28975 7.1844 17.914125 7.1844"></polygon>
                        <polygon id="Fill-20" points="23.673925 0.7324 28.4363 0.7324 28.4363 2.0244 25.04955 2.0244 25.04955 3.3964 28.0333 3.3964 28.0333 4.6844 25.04955 4.6844 25.04955 7.1844 23.673925 7.1844"></polygon>
                        <path d="M34.7994375,2.3456 L34.7994375,2.3256 C34.7994375,1.9576 34.5591875,1.7256 34.2143125,1.7256 C33.8461875,1.7256 33.6020625,1.9936 33.6020625,2.3816 L33.6020625,2.4016 C33.6020625,2.6856 33.7105625,2.8976 33.9701875,3.2016 C34.5165625,2.9896 34.7994375,2.7496 34.7994375,2.3456 L34.7994375,2.3456 Z M34.7258125,5.7456 L33.5323125,4.4936 C33.1215625,4.7136 32.9510625,5.0256 32.9510625,5.3416 L32.9510625,5.3576 C32.9510625,5.8096 33.3191875,6.1136 33.8268125,6.1136 C34.1406875,6.1136 34.4429375,5.9776 34.7258125,5.7456 L34.7258125,5.7456 Z M35.4969375,6.5576 C34.9893125,6.9896 34.3925625,7.2736 33.6679375,7.2736 C32.4705625,7.2736 31.5676875,6.5576 31.5676875,5.4136 L31.5676875,5.3976 C31.5676875,4.5776 31.9939375,3.9936 32.7805625,3.6256 C32.4783125,3.1816 32.3426875,2.7776 32.3426875,2.3376 L32.3426875,2.3176 C32.3426875,1.4336 33.0324375,0.6216 34.2375625,0.6216 C35.2993125,0.6216 35.9968125,1.3416 35.9968125,2.2456 L35.9968125,2.2616 C35.9968125,3.1296 35.4620625,3.6336 34.6870625,3.9496 L35.5163125,4.8056 C35.7178125,4.4736 35.9270625,4.0936 36.1246875,3.6976 L37.1321875,4.2696 C36.8880625,4.7216 36.6245625,5.2016 36.3106875,5.6336 L37.2290625,6.5856 L36.2176875,7.3136 L35.4969375,6.5576 Z" id="Fill-21"></path>
                        <polygon id="Fill-22" points="40.1802625 0.7324 41.6992625 0.7324 43.3267625 5.2764 44.9620125 0.7324 46.4461375 0.7324 43.9196375 7.2324 42.7028875 7.2324"></polygon>
                        <path d="M51.8393625,3.9764 L51.8393625,3.9564 C51.8393625,2.8524 51.0527375,1.9284 49.9444875,1.9284 C48.8401125,1.9284 48.0689875,2.8324 48.0689875,3.9404 L48.0689875,3.9564 C48.0689875,5.0644 48.8556125,5.9844 49.9638625,5.9844 C51.0721125,5.9844 51.8393625,5.0804 51.8393625,3.9764 M46.6313625,3.9764 L46.6313625,3.9564 C46.6313625,2.1244 48.0341125,0.6204 49.9638625,0.6204 C51.8936125,0.6204 53.2731125,2.1044 53.2731125,3.9404 L53.2731125,3.9564 C53.2731125,5.7924 51.8742375,7.2964 49.9444875,7.2964 C48.0186125,7.2964 46.6313625,5.8084 46.6313625,3.9764" id="Fill-23"></path>
                        <polygon id="Fill-24" points="54.3937625 0.7324 55.7693875 0.7324 55.7693875 5.8924 58.8848875 5.8924 58.8848875 7.1844 54.3937625 7.1844"></polygon>
                        <path d="M59.544025,4.418 L59.544025,0.734 L60.91965,0.734 L60.91965,4.382 C60.91965,5.43 61.427275,5.978 62.26815,5.978 C63.109025,5.978 63.61665,5.45 63.61665,4.426 L63.61665,0.734 L64.9884,0.734 L64.9884,4.374 C64.9884,6.326 63.930525,7.286 62.248775,7.286 C60.574775,7.286 59.544025,6.318 59.544025,4.418" id="Fill-25"></path>
                        <polygon id="Fill-26" points="66.291175 0.7324 67.5583 0.7324 70.4878 4.7044 70.4878 0.7324 71.847925 0.7324 71.847925 7.1844 70.677675 7.1844 67.6513 3.0804 67.6513 7.1844 66.291175 7.1844"></polygon>
                        <polygon id="Fill-27" points="74.6995375 2.0412 72.7969125 2.0412 72.7969125 0.7332 77.9777875 0.7332 77.9777875 2.0412 76.0712875 2.0412 76.0712875 7.1852 74.6995375 7.1852"></polygon>
                        <polygon id="Fill-28" points="78.9302625 0.7324 83.6461375 0.7324 83.6461375 1.9924 80.2981375 1.9924 80.2981375 3.3044 83.2431375 3.3044 83.2431375 4.5644 80.2981375 4.5644 80.2981375 5.9204 83.6926375 5.9204 83.6926375 7.1844 78.9302625 7.1844"></polygon>
                        <polygon id="Fill-29" points="84.8109625 0.7324 89.5268375 0.7324 89.5268375 1.9924 86.1788375 1.9924 86.1788375 3.3044 89.1238375 3.3044 89.1238375 4.5644 86.1788375 4.5644 86.1788375 5.9204 89.5733375 5.9204 89.5733375 7.1844 84.8109625 7.1844"></polygon>
                        <path d="M93.4615125,3.8652 C94.1318875,3.8652 94.5116375,3.4972 94.5116375,2.9532 L94.5116375,2.9372 C94.5116375,2.3252 94.1008875,2.0132 93.4343875,2.0132 L92.0703875,2.0132 L92.0703875,3.8652 L93.4615125,3.8652 Z M90.6908875,0.7332 L93.5467625,0.7332 C94.3450125,0.7332 94.9611375,0.9612 95.3680125,1.3852 C95.7206375,1.7452 95.9066375,2.2532 95.9066375,2.8612 L95.9066375,2.8772 C95.9066375,3.9212 95.3602625,4.5772 94.5658875,4.8772 L96.0965125,7.1852 L94.4883875,7.1852 L93.1476375,5.1172 L92.0703875,5.1172 L92.0703875,7.1852 L90.6908875,7.1852 L90.6908875,0.7332 Z" id="Fill-30"></path>
                        <path d="M96.621575,6.244 L97.435325,5.24 C97.993325,5.72 98.5862,6.02 99.2992,6.02 C99.861075,6.02 100.202075,5.792 100.202075,5.412 L100.202075,5.396 C100.202075,5.036 99.985075,4.852 98.9427,4.576 C97.683325,4.244 96.869575,3.884 96.869575,2.604 L96.869575,2.584 C96.869575,1.412 97.784075,0.64 99.05895,0.64 C99.969575,0.64 100.744575,0.936 101.380075,1.46 L100.667075,2.528 C100.109075,2.132 99.57045,1.892 99.039575,1.892 C98.512575,1.892 98.23745,2.144 98.23745,2.456 L98.23745,2.476 C98.23745,2.9 98.504825,3.036 99.58595,3.324 C100.853075,3.66 101.566075,4.132 101.566075,5.256 L101.566075,5.276 C101.566075,6.556 100.620575,7.276 99.27595,7.276 C98.326575,7.276 97.36945,6.936 96.621575,6.244" id="Fill-31"></path>
                        <polygon id="Fill-32" points="105.245775 0.7324 106.6214 0.7324 106.6214 3.2844 109.159525 3.2844 109.159525 0.7324 110.531275 0.7324 110.531275 7.1844 109.159525 7.1844 109.159525 4.5924 106.6214 4.5924 106.6214 7.1844 105.245775 7.1844"></polygon>
                        <path d="M111.83405,4.418 L111.83405,0.734 L113.209675,0.734 L113.209675,4.382 C113.209675,5.43 113.7173,5.978 114.558175,5.978 C115.39905,5.978 115.906675,5.45 115.906675,4.426 L115.906675,0.734 L117.278425,0.734 L117.278425,4.374 C117.278425,6.326 116.22055,7.286 114.5388,7.286 C112.8648,7.286 111.83405,6.318 111.83405,4.418" id="Fill-33"></path>
                        <path d="M121.555262,5.9396 C122.159762,5.9396 122.527887,5.7196 122.527887,5.2396 L122.527887,5.2196 C122.527887,4.7876 122.214012,4.5196 121.508762,4.5196 L119.920013,4.5196 L119.920013,5.9396 L121.555262,5.9396 Z M121.187138,3.3396 C121.795512,3.3396 122.179137,3.1356 122.179137,2.6596 L122.179137,2.6396 C122.179137,2.2156 121.857513,1.9756 121.280138,1.9756 L119.920013,1.9756 L119.920013,3.3396 L121.187138,3.3396 Z M118.579262,0.7316 L121.481638,0.7316 C122.198512,0.7316 122.760387,0.9356 123.116887,1.3036 C123.403637,1.5996 123.547013,1.9556 123.547013,2.3996 L123.547013,2.4196 C123.547013,3.1476 123.171138,3.5516 122.725512,3.8116 C123.446262,4.0956 123.895762,4.5276 123.895762,5.3956 L123.895762,5.4156 C123.895762,6.5956 122.965762,7.1836 121.555262,7.1836 L118.579262,7.1836 L118.579262,0.7316 Z" id="Fill-34"></path>
                    </g>
                </g>
                <path d="M85.5980156,15 L54.6376072,15 C53.7321067,15 53,14.2581989 53,13.340708 C53,12.4232171 53.7321067,11.6814159 54.6376072,11.6814159 L85.5980156,11.6814159 C87.8752529,11.6814159 89.7247857,9.80348777 89.7247857,7.5 C89.7247857,5.19260802 87.8752529,3.31467985 85.5980156,3.31467985 C83.3207783,3.31467985 81.4712455,5.19260802 81.4712455,7.5 C81.4712455,8.41358667 80.7352856,9.15538782 79.8336384,9.15538782 C78.9319911,9.15538782 78.1960312,8.41358667 78.1960312,7.5 C78.1960312,3.36543467 81.5136307,0 85.5980156,0 C89.6824005,0 93,3.36543467 93,7.5 C93,11.6345653 89.6824005,15 85.5980156,15" id="Fill-36" fill="#7C66EF" mask="url(#mask-2)"></path>
                <path d="M163.476212,70 C159.324617,70 155.952425,66.6345653 155.952425,62.5 C155.952425,61.5825091 156.700495,60.840708 157.61698,60.840708 C158.533464,60.840708 159.281534,61.5825091 159.281534,62.5 C159.281534,64.807392 161.161502,66.6814159 163.476212,66.6814159 C165.790923,66.6814159 167.67089,64.807392 167.67089,62.5 C167.67089,60.192608 165.790923,58.3146799 163.476212,58.3146799 L138.664555,58.3146799 C137.74807,58.3146799 137,57.5728787 137,56.659292 C137,55.7418011 137.74807,55 138.664555,55 L163.476212,55 C167.627808,55 171,58.3654347 171,62.5 C171,66.6345653 167.627808,70 163.476212,70" id="Fill-37" fill="#1DB7AC" mask="url(#mask-2)"></path>
            </g>
        </g>
    </g>
</svg>