<?xml version="1.0" encoding="UTF-8"?>
<svg width="200px" height="70px" viewBox="0 0 200 70" version="1.1" xmlns="http://www.w3.org/2000/svg" xmlns:xlink="http://www.w3.org/1999/xlink">
    <title>Logo/Westerly</title>
    <defs>
        <polygon id="path-1" points="0 70 200 70 200 0 0 0"></polygon>
    </defs>
    <g id="Symbols" stroke="none" stroke-width="1" fill="none" fill-rule="evenodd">
        <g id="Header" transform="translate(-40.000000, -65.000000)">
            <g transform="translate(-1.000000, 0.000000)" id="Logos">
                <g transform="translate(41.000000, 65.000000)" id="Group-38">
                    <path d="M40.5380417,11 L48,11 L39.6674157,45.9626858 C39.1897271,47.9888785 37.4677368,49 34.505297,49 C31.4696629,49 29.7130016,47.9888785 29.2391653,45.9626858 L23.9229535,25.7284066 L18.6067416,45.9626858 C18.129053,47.9888785 16.376244,49 13.34061,49 C10.3743178,49 8.67158909,47.9888785 8.22857143,45.9626858 L0,11 L7.71621188,11 L13.8028892,40.1961335 L20.5983949,15.1392787 L27.3977528,15.1392787 L34.3011236,40.3541212 L40.5380417,11 Z" id="Fill-1" fill="#231F20"></path>
                    <path d="M59.248,27.2976891 C57.58144,27.2976891 56.10688,27.8479977 54.81664,28.9447395 C53.5264,30.0414813 52.70848,31.5838955 52.37056,33.5719822 L60.52288,33.5719822 C61.54432,33.5719822 62.33152,33.316205 62.89216,32.8007751 C63.4528,32.2853452 63.73312,31.5993972 63.73312,30.742931 C63.73312,29.785704 63.3184,28.967992 62.48512,28.301421 C61.65184,27.6309746 60.57664,27.2976891 59.248,27.2976891 M59.248,43.3961533 C61.93216,43.3961533 64.49728,42.4854313 66.94336,40.6678628 L69.74656,45.1943448 C66.55168,47.7327401 62.89984,49 58.79104,49 C54.88192,49 51.77536,47.7753696 49.46368,45.3222334 C47.15584,42.8729726 46,39.7261375 46,35.8856036 C46,32.0140663 47.18656,28.7315918 49.56736,26.03818 C51.94432,23.3447682 55.18912,22 59.30176,22 C62.28928,22 64.81984,22.798335 66.89344,24.3911296 C68.9632,25.9877996 70,28.1735324 70,30.9483278 C70,33.0759294 69.3472,34.8314913 68.03776,36.2227645 C66.72832,37.6101622 64.72,38.3038611 62.00128,38.3038611 L52.52416,38.3038611 C53.2384,41.6987225 55.48096,43.3961533 59.248,43.3961533" id="Fill-3" fill="#231F20"></path>
                    <path d="M82.8686977,49 C78.3613041,49 74.7357919,47.6954271 72,45.0823986 L74.8024229,40.6522865 C77.3344023,42.6790336 79.9173348,43.6924072 82.5551399,43.6924072 C83.6996259,43.6924072 84.6598967,43.4710958 85.4398717,43.0207075 C86.2198468,42.5780846 86.611794,41.960742 86.611794,41.1686799 C86.611794,40.8930112 86.5569214,40.6367558 86.4550151,40.3960311 C86.3531089,40.1553063 86.188491,39.9339948 85.9611616,39.7243313 C85.7338322,39.5185505 85.5221807,39.3477135 85.3105291,39.2118205 C85.1027971,39.0720449 84.7892393,38.9167386 84.3776946,38.7459016 C83.9583111,38.5750647 83.6212364,38.446937 83.3625512,38.3615186 C83.103866,38.2761001 82.7001603,38.1479724 82.1631926,37.9732528 C81.6301443,37.8024159 81.238197,37.6820535 80.9912703,37.6121657 C78.5651167,36.7890423 76.7033672,35.8261432 75.4060217,34.7273512 C74.1047568,33.6285591 73.4541244,32.0832614 73.4541244,30.0914582 C73.4541244,27.5483175 74.4339925,25.5642796 76.3937288,24.1393443 C78.3495457,22.714409 80.8736861,22 83.9583111,22 C87.7014074,22 90.9624087,22.997843 93.7373953,24.9896462 L91.0329592,29.3692839 C88.6420809,27.9249353 86.3844646,27.2066437 84.2679494,27.2066437 C83.1273829,27.2066437 82.2063068,27.4201898 81.5125601,27.8511648 C80.8227329,28.2782571 80.4738999,28.8373598 80.4738999,29.5245902 C80.4738999,30.0720449 80.7325851,30.5612597 81.2538749,30.9922347 C81.7751648,31.4232097 82.2533405,31.714409 82.6844825,31.8658326 C83.1156244,32.0211389 83.9073579,32.2890423 85.0518439,32.6656601 C86.2276857,33.0461605 87.1056476,33.3373598 87.6818101,33.5431406 C88.2501336,33.7489215 89.0222697,34.1022433 89.9903795,34.5992235 C90.9624087,35.0962036 91.6835917,35.5970664 92.1500089,36.0940466 C92.6164262,36.5910267 93.0436487,37.2433132 93.4238375,38.050906 C93.8079458,38.8584987 94,39.7592752 94,40.7571182 C94,43.3313201 92.922145,45.350302 90.774274,46.8101812 C88.6224835,48.2700604 85.9885979,49 82.8686977,49" id="Fill-5" fill="#231F20"></path>
                    <path d="M113.761362,41.2222222 L116,46.3189636 C113.674958,48.1050011 110.94539,49 107.819151,49 C105.007107,49 102.815598,48.1564834 101.248551,46.4773704 C99.6893585,44.7942974 98.9077988,42.4300747 98.9077988,39.3807422 L98.9077988,27.0844082 L95,27.0844082 L95,22.1460738 L98.9077988,22.1460738 L98.9077988,14 L105.992893,14 L105.992893,22.1460738 L114.440808,22.1460738 L114.440808,27.0844082 L105.992893,27.0844082 L105.992893,38.7510749 C105.992893,40.1529758 106.35029,41.1509391 107.065083,41.7449649 C107.775949,42.3429509 108.61642,42.6399638 109.590425,42.6399638 C110.94539,42.6399638 112.335702,42.1687033 113.761362,41.2222222" id="Fill-7" fill="#231F20"></path>
                    <path d="M129.24972,27.2976891 C127.583427,27.2976891 126.105263,27.8479977 124.81523,28.9447395 C123.525196,30.0414813 122.707407,31.5838955 122.369541,33.5719822 L130.520557,33.5719822 C131.541833,33.5719822 132.332747,33.316205 132.889458,32.8007751 C133.453847,32.2853452 133.730283,31.5993972 133.730283,30.742931 C133.730283,29.785704 133.315629,28.967992 132.482483,28.301421 C131.649336,27.6309746 130.574308,27.2976891 129.24972,27.2976891 M129.24972,43.3961533 C131.929611,43.3961533 134.494321,42.4854313 136.94001,40.6678628 L139.742761,45.1943448 C136.548392,47.7327401 132.897136,49 128.788994,49 C124.880499,49 121.774436,47.7753696 119.463126,45.3222334 C117.155655,42.8729726 116,39.7261375 116,35.8856036 C116,32.0140663 117.18637,28.7315918 119.570629,26.03818 C121.947208,23.3447682 125.18765,22 129.299632,22 C132.286674,22 134.816829,22.798335 136.890098,24.3911296 C138.959526,25.9877996 140,28.1735324 140,30.9483278 C140,33.0759294 139.343465,34.8314913 138.038074,36.2227645 C136.728843,37.6101622 134.717005,38.3038611 131.99872,38.3038611 L122.523116,38.3038611 C123.237242,41.6987225 125.479443,43.3961533 129.24972,43.3961533" id="Fill-9" fill="#231F20"></path>
                    <path d="M158.976705,21 C160.563694,21 161.903463,21.3172738 163,21.9478555 L161.516684,27.6310223 C160.280588,27.2463278 159.207975,27.0519976 158.286884,27.0519976 C155.746905,27.0519976 153.418258,28.0355464 151.304932,29.998678 L151.304932,48 L144,48 L144,21.6821387 L151.041763,21.6821387 L151.041763,24.7358989 C153.438195,22.2452996 156.081847,21 158.976705,21" id="Fill-11" fill="#231F20"></path>
                    <mask id="mask-2" fill="white">
                        <use xlink:href="#path-1"></use>
                    </mask>
                    <g id="Clip-14"></g>
                    <polygon id="Fill-13" fill="#231F20" mask="url(#mask-2)" points="165 48 171 48 171 11 165 11"></polygon>
                    <path d="M192.916963,22 L200,22 L189.55396,49.114747 C189.047206,50.4171152 188.517418,51.5800861 187.976113,52.6036598 C187.430968,53.6232508 186.755296,54.6547901 185.941419,55.6942949 C185.123703,56.7337998 184.137068,57.5423036 182.985355,58.123789 C181.825963,58.7052745 180.55524,59 179.161666,59 C176.750746,59 174.696858,58.2034446 173,56.6182992 L175.441632,51.6517761 C176.462818,52.4961249 177.583819,52.9182992 178.804635,52.9182992 C180.605147,52.9182992 182.033272,51.6677072 183.08517,49.1665231 L183.745486,47.4738428 L173.9636,22 L181.100384,22 L187.108489,39.7592034 L192.916963,22 Z" id="Fill-15" fill="#231F20" mask="url(#mask-2)"></path>
                    <g id="Group-35" mask="url(#mask-2)" fill="#939393">
                        <g transform="translate(8.000000, 54.000000)">
                            <path d="M0.1701125,6.244 L0.9838625,5.24 C1.5418625,5.72 2.1347375,6.02 2.8477375,6.02 C3.4096125,6.02 3.7506125,5.792 3.7506125,5.412 L3.7506125,5.396 C3.7506125,5.036 3.5336125,4.852 2.4912375,4.576 C1.2318625,4.244 0.4181125,3.884 0.4181125,2.604 L0.4181125,2.584 C0.4181125,1.412 1.3326125,0.64 2.6074875,0.64 C3.5181125,0.64 4.2931125,0.936 4.9286125,1.46 L4.2156125,2.528 C3.6576125,2.132 3.1189875,1.892 2.5881125,1.892 C2.0611125,1.892 1.7859875,2.144 1.7859875,2.456 L1.7859875,2.476 C1.7859875,2.9 2.0533625,3.036 3.1344875,3.324 C4.4016125,3.66 5.1146125,4.132 5.1146125,5.256 L5.1146125,5.276 C5.1146125,6.556 4.1691125,7.276 2.8244875,7.276 C1.8751125,7.276 0.9179875,6.936 0.1701125,6.244" id="Fill-16"></path>
                            <polygon id="Fill-17" points="7.5341625 2.0412 5.6315375 2.0412 5.6315375 0.7332 10.8124125 0.7332 10.8124125 2.0412 8.9059125 2.0412 8.9059125 7.1852 7.5341625 7.1852"></polygon>
                            <path d="M14.5541125,4.4824 L13.7209875,2.3904 L12.8917375,4.4824 L14.5541125,4.4824 Z M13.1048625,0.6864 L14.3719875,0.6864 L17.0534875,7.1824 L15.6119875,7.1824 L15.0423625,5.7344 L12.3996125,5.7344 L11.8299875,7.1824 L10.4311125,7.1824 L13.1048625,0.6864 Z" id="Fill-18"></path>
                            <polygon id="Fill-19" points="17.914125 0.7324 22.6765 0.7324 22.6765 2.0244 19.28975 2.0244 19.28975 3.3964 22.2735 3.3964 22.2735 4.6844 19.28975 4.6844 19.28975 7.1844 17.914125 7.1844"></polygon>
                            <polygon id="Fill-20" points="23.673925 0.7324 28.4363 0.7324 28.4363 2.0244 25.04955 2.0244 25.04955 3.3964 28.0333 3.3964 28.0333 4.6844 25.04955 4.6844 25.04955 7.1844 23.673925 7.1844"></polygon>
                            <path d="M34.7994375,2.3456 L34.7994375,2.3256 C34.7994375,1.9576 34.5591875,1.7256 34.2143125,1.7256 C33.8461875,1.7256 33.6020625,1.9936 33.6020625,2.3816 L33.6020625,2.4016 C33.6020625,2.6856 33.7105625,2.8976 33.9701875,3.2016 C34.5165625,2.9896 34.7994375,2.7496 34.7994375,2.3456 L34.7994375,2.3456 Z M34.7258125,5.7456 L33.5323125,4.4936 C33.1215625,4.7136 32.9510625,5.0256 32.9510625,5.3416 L32.9510625,5.3576 C32.9510625,5.8096 33.3191875,6.1136 33.8268125,6.1136 C34.1406875,6.1136 34.4429375,5.9776 34.7258125,5.7456 L34.7258125,5.7456 Z M35.4969375,6.5576 C34.9893125,6.9896 34.3925625,7.2736 33.6679375,7.2736 C32.4705625,7.2736 31.5676875,6.5576 31.5676875,5.4136 L31.5676875,5.3976 C31.5676875,4.5776 31.9939375,3.9936 32.7805625,3.6256 C32.4783125,3.1816 32.3426875,2.7776 32.3426875,2.3376 L32.3426875,2.3176 C32.3426875,1.4336 33.0324375,0.6216 34.2375625,0.6216 C35.2993125,0.6216 35.9968125,1.3416 35.9968125,2.2456 L35.9968125,2.2616 C35.9968125,3.1296 35.4620625,3.6336 34.6870625,3.9496 L35.5163125,4.8056 C35.7178125,4.4736 35.9270625,4.0936 36.1246875,3.6976 L37.1321875,4.2696 C36.8880625,4.7216 36.6245625,5.2016 36.3106875,5.6336 L37.2290625,6.5856 L36.2176875,7.3136 L35.4969375,6.5576 Z" id="Fill-21"></path>
                            <polygon id="Fill-22" points="40.1802625 0.7324 41.6992625 0.7324 43.3267625 5.2764 44.9620125 0.7324 46.4461375 0.7324 43.9196375 7.2324 42.7028875 7.2324"></polygon>
                            <path d="M51.8393625,3.9764 L51.8393625,3.9564 C51.8393625,2.8524 51.0527375,1.9284 49.9444875,1.9284 C48.8401125,1.9284 48.0689875,2.8324 48.0689875,3.9404 L48.0689875,3.9564 C48.0689875,5.0644 48.8556125,5.9844 49.9638625,5.9844 C51.0721125,5.9844 51.8393625,5.0804 51.8393625,3.9764 M46.6313625,3.9764 L46.6313625,3.9564 C46.6313625,2.1244 48.0341125,0.6204 49.9638625,0.6204 C51.8936125,0.6204 53.2731125,2.1044 53.2731125,3.9404 L53.2731125,3.9564 C53.2731125,5.7924 51.8742375,7.2964 49.9444875,7.2964 C48.0186125,7.2964 46.6313625,5.8084 46.6313625,3.9764" id="Fill-23"></path>
                            <polygon id="Fill-24" points="54.3937625 0.7324 55.7693875 0.7324 55.7693875 5.8924 58.8848875 5.8924 58.8848875 7.1844 54.3937625 7.1844"></polygon>
                            <path d="M59.544025,4.418 L59.544025,0.734 L60.91965,0.734 L60.91965,4.382 C60.91965,5.43 61.427275,5.978 62.26815,5.978 C63.109025,5.978 63.61665,5.45 63.61665,4.426 L63.61665,0.734 L64.9884,0.734 L64.9884,4.374 C64.9884,6.326 63.930525,7.286 62.248775,7.286 C60.574775,7.286 59.544025,6.318 59.544025,4.418" id="Fill-25"></path>
                            <polygon id="Fill-26" points="66.291175 0.7324 67.5583 0.7324 70.4878 4.7044 70.4878 0.7324 71.847925 0.7324 71.847925 7.1844 70.677675 7.1844 67.6513 3.0804 67.6513 7.1844 66.291175 7.1844"></polygon>
                            <polygon id="Fill-27" points="74.6995375 2.0412 72.7969125 2.0412 72.7969125 0.7332 77.9777875 0.7332 77.9777875 2.0412 76.0712875 2.0412 76.0712875 7.1852 74.6995375 7.1852"></polygon>
                            <polygon id="Fill-28" points="78.9302625 0.7324 83.6461375 0.7324 83.6461375 1.9924 80.2981375 1.9924 80.2981375 3.3044 83.2431375 3.3044 83.2431375 4.5644 80.2981375 4.5644 80.2981375 5.9204 83.6926375 5.9204 83.6926375 7.1844 78.9302625 7.1844"></polygon>
                            <polygon id="Fill-29" points="84.8109625 0.7324 89.5268375 0.7324 89.5268375 1.9924 86.1788375 1.9924 86.1788375 3.3044 89.1238375 3.3044 89.1238375 4.5644 86.1788375 4.5644 86.1788375 5.9204 89.5733375 5.9204 89.5733375 7.1844 84.8109625 7.1844"></polygon>
                            <path d="M93.4615125,3.8652 C94.1318875,3.8652 94.5116375,3.4972 94.5116375,2.9532 L94.5116375,2.9372 C94.5116375,2.3252 94.1008875,2.0132 93.4343875,2.0132 L92.0703875,2.0132 L92.0703875,3.8652 L93.4615125,3.8652 Z M90.6908875,0.7332 L93.5467625,0.7332 C94.3450125,0.7332 94.9611375,0.9612 95.3680125,1.3852 C95.7206375,1.7452 95.9066375,2.2532 95.9066375,2.8612 L95.9066375,2.8772 C95.9066375,3.9212 95.3602625,4.5772 94.5658875,4.8772 L96.0965125,7.1852 L94.4883875,7.1852 L93.1476375,5.1172 L92.0703875,5.1172 L92.0703875,7.1852 L90.6908875,7.1852 L90.6908875,0.7332 Z" id="Fill-30"></path>
                            <path d="M96.621575,6.244 L97.435325,5.24 C97.993325,5.72 98.5862,6.02 99.2992,6.02 C99.861075,6.02 100.202075,5.792 100.202075,5.412 L100.202075,5.396 C100.202075,5.036 99.985075,4.852 98.9427,4.576 C97.683325,4.244 96.869575,3.884 96.869575,2.604 L96.869575,2.584 C96.869575,1.412 97.784075,0.64 99.05895,0.64 C99.969575,0.64 100.744575,0.936 101.380075,1.46 L100.667075,2.528 C100.109075,2.132 99.57045,1.892 99.039575,1.892 C98.512575,1.892 98.23745,2.144 98.23745,2.456 L98.23745,2.476 C98.23745,2.9 98.504825,3.036 99.58595,3.324 C100.853075,3.66 101.566075,4.132 101.566075,5.256 L101.566075,5.276 C101.566075,6.556 100.620575,7.276 99.27595,7.276 C98.326575,7.276 97.36945,6.936 96.621575,6.244" id="Fill-31"></path>
                            <polygon id="Fill-32" points="105.245775 0.7324 106.6214 0.7324 106.6214 3.2844 109.159525 3.2844 109.159525 0.7324 110.531275 0.7324 110.531275 7.1844 109.159525 7.1844 109.159525 4.5924 106.6214 4.5924 106.6214 7.1844 105.245775 7.1844"></polygon>
                            <path d="M111.83405,4.418 L111.83405,0.734 L113.209675,0.734 L113.209675,4.382 C113.209675,5.43 113.7173,5.978 114.558175,5.978 C115.39905,5.978 115.906675,5.45 115.906675,4.426 L115.906675,0.734 L117.278425,0.734 L117.278425,4.374 C117.278425,6.326 116.22055,7.286 114.5388,7.286 C112.8648,7.286 111.83405,6.318 111.83405,4.418" id="Fill-33"></path>
                            <path d="M121.555262,5.9396 C122.159762,5.9396 122.527887,5.7196 122.527887,5.2396 L122.527887,5.2196 C122.527887,4.7876 122.214012,4.5196 121.508762,4.5196 L119.920013,4.5196 L119.920013,5.9396 L121.555262,5.9396 Z M121.187138,3.3396 C121.795512,3.3396 122.179137,3.1356 122.179137,2.6596 L122.179137,2.6396 C122.179137,2.2156 121.857513,1.9756 121.280138,1.9756 L119.920013,1.9756 L119.920013,3.3396 L121.187138,3.3396 Z M118.579262,0.7316 L121.481638,0.7316 C122.198512,0.7316 122.760387,0.9356 123.116887,1.3036 C123.403637,1.5996 123.547013,1.9556 123.547013,2.3996 L123.547013,2.4196 C123.547013,3.1476 123.171138,3.5516 122.725512,3.8116 C123.446262,4.0956 123.895762,4.5276 123.895762,5.3956 L123.895762,5.4156 C123.895762,6.5956 122.965762,7.1836 121.555262,7.1836 L118.579262,7.1836 L118.579262,0.7316 Z" id="Fill-34"></path>
                        </g>
                    </g>
                    <path d="M84.5980156,14 L53.6376072,14 C52.7321067,14 52,13.3076523 52,12.4513274 C52,11.5950026 52.7321067,10.9026549 53.6376072,10.9026549 L84.5980156,10.9026549 C86.8752529,10.9026549 88.7247857,9.14992192 88.7247857,7 C88.7247857,4.84643415 86.8752529,3.0937012 84.5980156,3.0937012 C82.3207783,3.0937012 80.4712455,4.84643415 80.4712455,7 C80.4712455,7.8526809 79.7352856,8.54502863 78.8336384,8.54502863 C77.9319911,8.54502863 77.1960312,7.8526809 77.1960312,7 C77.1960312,3.14107236 80.5136307,0 84.5980156,0 C88.6824005,0 92,3.14107236 92,7 C92,10.8589276 88.6824005,14 84.5980156,14" id="Fill-36" fill="#5A4CA6" mask="url(#mask-2)"></path>
                    <path d="M162.6975,70 C158.668011,70 155.395001,66.8589276 155.395001,63 C155.395001,62.1436752 156.121069,61.4513274 157.010598,61.4513274 C157.900127,61.4513274 158.626195,62.1436752 158.626195,63 C158.626195,65.1535659 160.45087,66.9026549 162.6975,66.9026549 C164.944131,66.9026549 166.768805,65.1535659 166.768805,63 C166.768805,60.8464341 164.944131,59.0937012 162.6975,59.0937012 L138.615597,59.0937012 C137.726068,59.0937012 137,58.4013535 137,57.5486726 C137,56.6923477 137.726068,56 138.615597,56 L162.6975,56 C166.72699,56 170,59.1410724 170,63 C170,66.8589276 166.72699,70 162.6975,70" id="Fill-37" fill="#1DB7AC" mask="url(#mask-2)"></path>
                </g>
            </g>
        </g>
    </g>
</svg>